<svg width="1280" height="716" viewBox="0 0 1280 716" fill="none" xmlns="http://www.w3.org/2000/svg">
<g style="mix-blend-mode:screen" opacity="0.7">
<path d="M1280 701.391C1266.54 704.069 1253.92 709.047 1242.95 716H1245.91C1256.09 709.766 1267.68 705.27 1280 702.779V701.391Z" fill="white" fill-opacity="0.1"/>
</g>
<g style="mix-blend-mode:screen" opacity="0.7">
<path d="M1280 692.858C1259.11 693.358 1237.22 698.137 1210.83 715.613C1210.58 715.76 1210.35 715.92 1210.14 716.091H1212.9C1238.63 699.389 1259.5 694.792 1279.97 694.36L1280 692.858Z" fill="white" fill-opacity="0.1"/>
</g>
<g style="mix-blend-mode:screen" opacity="0.7">
<path d="M1280 685.439C1252.55 685.257 1225.74 686.486 1189.25 708.013C1184.87 710.584 1180.7 713.269 1176.57 716H1179.34C1182.88 713.724 1186.48 711.449 1190.21 709.173C1226.18 687.897 1252.77 686.691 1279.94 686.873L1280 685.439Z" fill="white" fill-opacity="0.1"/>
</g>
<g style="mix-blend-mode:screen" opacity="0.7">
<path d="M1280 674.949C1273.25 675.654 1266.75 676.132 1260.36 676.587C1232.44 678.635 1206.04 680.547 1167.66 700.526C1157.98 705.555 1148.93 710.834 1140.16 716H1143.2C1151.34 711.221 1159.81 706.374 1168.63 701.732C1206.62 681.958 1232.8 680.046 1260.49 678.044C1266.86 677.566 1273.3 677.088 1280 676.405V674.949Z" fill="white" fill-opacity="0.1"/>
</g>
<g style="mix-blend-mode:screen" opacity="0.7">
<path d="M1280 658.451C1264.97 662.261 1249.69 665.361 1234.24 667.736C1208.12 672.105 1183.43 676.223 1146.11 693.017C1138.94 696.248 1132.08 699.48 1125.44 702.62C1115.37 707.376 1105.71 711.95 1095.97 716H1099.82C1108.56 712.268 1117.28 708.149 1126.33 703.871C1132.97 700.754 1139.83 697.5 1146.97 694.291C1184.04 677.612 1208.59 673.516 1234.6 669.26C1249.92 666.911 1265.08 663.872 1280 660.158V658.451Z" fill="white" fill-opacity="0.1"/>
</g>
<g style="mix-blend-mode:screen" opacity="0.7">
<path d="M1280 634.74C1274.12 637.93 1267.91 640.687 1261.43 642.978L1260.47 643.319C1258.39 644.047 1256.37 644.753 1254.35 645.39C1235.84 651.352 1220.76 655.493 1206.18 659.498C1178.35 666.789 1151.09 675.483 1124.56 685.53L1122.18 686.418C1081.94 701.596 1050.24 713.588 1004.5 711.676C988.838 711.017 972.707 707.945 955.608 704.691C945.038 702.688 934.109 700.595 923.318 699.138C901.08 696.051 878.296 696.912 856.497 701.664C843.086 704.449 830.445 709.315 819.254 716H822.326C832.851 710.069 844.57 705.717 856.94 703.143C878.495 698.441 901.026 697.595 923.013 700.663C933.749 702.119 944.678 704.19 955.22 706.192C972.375 709.446 988.589 712.541 1004.39 713.224C1050.51 715.158 1082.47 703.098 1122.89 687.829L1125.3 686.919C1151.78 676.901 1178.99 668.23 1206.76 660.955C1221.34 656.95 1236.45 652.808 1254.99 646.823C1257.01 646.186 1259.05 645.458 1261.16 644.73L1262.13 644.411C1268.34 642.206 1274.32 639.572 1280 636.538V634.74Z" fill="white" fill-opacity="0.1"/>
</g>
<g style="mix-blend-mode:screen" opacity="0.7">
<path d="M1280 601.267C1266.45 613.491 1250.16 623.45 1232.02 630.599L1229.75 631.486L1225.33 633.216C1212.16 638.199 1201.06 642.636 1190.35 646.869C1161.98 658.627 1132.83 669.058 1103.03 678.112C1063.1 690.218 1029.21 696.703 983.747 691.583C969.734 689.721 955.874 687.152 942.243 683.892C930.401 681.298 918.116 678.613 905.942 676.792C884.537 673.421 862.496 673.941 841.362 678.317C808.795 685.144 794.933 699.366 780.269 714.407L778.608 716.091H780.877L781.624 715.317C796.123 700.458 809.819 686.441 841.805 679.728C862.673 675.358 884.453 674.807 905.609 678.112C917.701 679.933 929.931 682.663 941.773 685.212C955.48 688.472 969.413 691.048 983.498 692.926C1029.35 698.091 1063.46 691.583 1103.64 679.386C1133.5 670.368 1162.71 659.96 1191.13 648.211C1201.83 643.933 1212.9 639.519 1226.07 634.558L1230.53 632.806L1232.77 631.919C1250.52 624.906 1266.53 615.246 1280 603.429V601.267Z" fill="white" fill-opacity="0.1"/>
</g>
<g style="mix-blend-mode:screen" opacity="0.7">
<path d="M1280 564.767C1274.94 568.681 1270.65 572.595 1266.17 576.691C1261.68 580.787 1256.62 585.497 1250.42 590.344C1235.95 601.266 1219.87 610.647 1202.55 618.265L1199.32 619.722L1196.27 621.11C1182.6 627.163 1171.37 633.261 1160.55 639.155C1138.61 651.056 1117.91 662.297 1081.45 670.603C1041.85 679.705 1007.54 679.842 962.968 671.399C952.426 669.374 941.662 666.643 930.263 663.731C916.649 660.249 902.594 656.677 888.482 654.31C867.924 650.656 846.631 650.843 826.171 654.856C792.969 661.523 781.237 676.201 768.73 691.72C762.123 700.654 754.123 708.84 744.935 716.068H747.564C756.232 708.994 763.831 701.087 770.197 692.516C782.51 677.225 794.158 662.798 826.587 656.267C846.8 652.299 867.838 652.112 888.15 655.721C902.151 657.996 916.179 661.66 929.654 665.119C941.054 668.031 951.789 670.785 962.469 672.81C1007.35 681.321 1041.91 681.093 1081.81 671.991C1118.52 663.617 1139.36 652.33 1161.41 640.361C1172.23 634.49 1183.41 628.414 1196.99 622.384L1200.06 620.996L1203.3 619.54C1220.74 611.86 1236.95 602.411 1251.53 591.414C1257.78 586.59 1262.6 582.084 1267.38 577.761C1271.45 574.006 1275.35 570.411 1279.86 566.838L1280 564.767Z" fill="white" fill-opacity="0.1"/>
</g>
<g style="mix-blend-mode:screen" opacity="0.7">
<path d="M11.3443 716C7.35998 709.173 3.73533 702.005 0 694.655V698.41C3.07127 704.44 6.11487 710.266 9.40749 716H11.3443Z" fill="white" fill-opacity="0.1"/>
</g>
<g style="mix-blend-mode:screen" opacity="0.7">
<path d="M1280 545.334C1277.81 546.222 1275.66 547.132 1273.55 548.065C1268.6 550.34 1263.81 552.616 1258.47 555.62C1249.59 560.467 1242.23 565.382 1234.4 570.57C1230.03 573.505 1225.52 576.509 1220.57 579.672C1205.35 589.059 1189.56 597.793 1173.25 605.841C1171.68 606.615 1170.15 607.434 1168.63 608.116L1167.36 608.799C1155.7 615.117 1144.64 622.162 1134.29 629.871C1114.23 644.161 1095.23 657.678 1060.03 662.957C1019.97 669.01 985.324 662.957 942.354 651.079C935.354 649.167 928.326 647.028 920.883 644.775C904.641 639.545 888.005 635.182 871.079 631.714C851.352 627.777 830.788 627.629 810.981 631.281C777.502 637.835 767.734 652.922 757.442 669.01C751.437 678.294 745.239 687.92 733.978 696.43C731.472 698.333 728.748 700.033 725.843 701.505C715.427 706.324 704.332 710.076 692.806 712.678C688.545 713.793 684.506 714.953 680.383 716.091H685.751C688.241 715.408 690.759 714.726 693.332 714.066C704.594 711.107 716.242 708.081 726.756 702.688C729.714 701.15 732.493 699.39 735.057 697.431C746.512 688.739 752.793 679.022 758.853 669.602C768.952 653.923 778.525 639.109 811.286 632.783C830.837 629.176 851.137 629.324 870.608 633.216C887.459 636.682 904.021 641.038 920.191 646.255C927.662 648.53 934.69 650.646 941.718 652.581C985.02 664.459 1019.83 670.557 1060.25 664.459C1095.97 659.089 1115.09 645.458 1135.37 631.031C1145.65 623.364 1156.63 616.358 1168.22 610.073L1169.49 609.413C1171.01 608.617 1172.53 607.821 1174.08 607.138C1190.45 599.067 1206.29 590.31 1221.56 580.901C1226.6 577.738 1231.14 574.711 1235.54 571.799C1243.31 566.611 1250.64 561.718 1259.44 556.917C1264.75 554.027 1269.51 551.66 1274.38 549.43C1276.21 548.611 1278.12 547.837 1279.92 547.155L1280 545.334Z" fill="white" fill-opacity="0.1"/>
</g>
<g style="mix-blend-mode:screen" opacity="0.7">
<path d="M26.3133 716C17.2307 704.589 8.91748 692.776 1.41112 680.615L0 678.34V681.48C7.3159 693.314 15.3881 704.822 24.1828 715.954L26.3133 716Z" fill="white" fill-opacity="0.1"/>
</g>
<g style="mix-blend-mode:screen" opacity="0.7">
<path d="M1280 532.955C1269.79 536.096 1259.3 539.327 1249.34 542.945C1244.39 544.765 1239.22 546.768 1233.49 549.089C1218.33 555.278 1205.07 561.786 1190.55 569.045C1174.66 576.964 1158.23 585.179 1143.76 593.416C1141.88 594.509 1140.05 595.692 1138.22 596.693C1127.26 603.795 1117.2 611.793 1108.2 620.564C1089.91 637.312 1072.59 653.104 1038.39 655.562C996.198 658.565 959.924 645.162 921.519 630.986L915.819 628.892C895.815 621.451 875.146 613.76 853.73 609.322C834.843 605.085 815.001 604.609 795.846 607.934C761.841 614.124 754.343 629.643 746.042 646.073C741.338 655.63 736.496 665.528 726.203 674.312C723.909 676.258 721.378 678.004 718.649 679.523C709.546 684.127 699.776 687.773 689.569 690.377C674.683 694.746 660.627 698.865 651.939 708.582C649.781 710.994 647.761 713.474 645.797 715.977H647.9C649.67 713.702 651.469 711.563 653.433 709.446C661.734 700.048 675.569 695.998 690.233 691.72C700.587 689.078 710.496 685.378 719.728 680.706C722.55 679.119 725.173 677.304 727.559 675.291C738.073 666.302 742.998 656.29 747.757 646.596C755.643 630.531 763.114 615.353 796.206 609.322C815.087 606.044 834.647 606.52 853.26 610.711C874.537 615.102 895.123 622.771 915.072 630.189L920.745 632.283C959.481 646.55 995.866 660.022 1038.5 656.972C1073.45 654.492 1091.08 638.472 1109.5 621.519C1118.41 612.809 1128.38 604.872 1139.25 597.831C1141.02 596.739 1142.84 595.555 1144.78 594.6C1159.22 586.362 1175.63 578.17 1191.49 570.251C1205.99 563.015 1219.16 556.598 1234.29 550.386C1239.99 548.11 1245.16 546.062 1250.09 544.265C1259.8 540.715 1270.04 537.552 1280.03 534.48L1280 532.955Z" fill="white" fill-opacity="0.1"/>
</g>
<g style="mix-blend-mode:screen" opacity="0.7">
<path d="M40.2309 716H42.6104C30.2252 704.539 19.0524 692.229 9.21381 679.205C6.05953 675.109 3.01593 670.967 0 666.735V669.556C2.51789 673.015 5.09111 676.383 7.71968 679.887C17.3294 692.64 28.2034 704.719 40.2309 716Z" fill="white" fill-opacity="0.1"/>
</g>
<g style="mix-blend-mode:screen" opacity="0.7">
<path d="M1280 522.761C1270.51 525.469 1260.63 528.154 1250.45 530.907C1200.45 544.56 1143.81 559.829 1109.34 584.519C1098.8 592.051 1090.49 601.699 1082.5 611.029C1065.9 630.257 1050.37 648.416 1017.01 648.075C978.269 647.688 942.963 630.895 908.93 614.647L900.906 610.824C864.936 593.78 822.575 577.305 781.182 584.428H780.822C746.457 590.435 740.951 606.319 735.113 623.112C731.682 632.92 728.168 643.091 718.815 652.148C710.653 660.067 698.23 664.14 686.221 668.077C671.916 672.765 657.141 677.589 649.089 688.944C643.456 697.284 638.412 705.885 633.982 714.703L633.346 715.909H635.282C635.282 715.704 635.476 715.499 635.587 715.294C640.006 706.528 645.022 697.974 650.611 689.672C658.358 678.749 672.746 674.016 686.858 669.442C699.087 665.437 711.76 661.319 720.061 653.127C729.662 643.797 733.259 633.489 736.662 623.545C742.583 606.432 747.73 591.687 780.933 585.839H781.292C822.104 578.807 864.078 595.146 899.771 612.076L907.795 615.876C942.022 632.214 977.383 649.122 1016.73 649.508C1051.01 649.827 1066.89 631.304 1083.69 611.825C1091.63 602.587 1099.85 593.007 1110.22 585.588C1144.56 561.104 1201.03 545.766 1250.86 532.25C1260.83 529.542 1270.54 526.925 1279.86 524.263L1280 522.761Z" fill="white" fill-opacity="0.1"/>
</g>
<g style="mix-blend-mode:screen" opacity="0.7">
<path d="M58.1051 716H60.54C36.8042 699.242 16.3804 679.551 0 657.632L0 659.908C15.9668 680.819 35.5392 699.713 58.1051 716Z" fill="white" fill-opacity="0.1"/>
</g>
<g style="mix-blend-mode:screen" opacity="0.7">
<path d="M1280 503.51C1266.17 507.719 1251.09 511.793 1235.34 516.048C1186.81 529.132 1131.83 543.969 1097.47 567.543C1087.31 574.529 1079.18 583.472 1071.32 591.96C1054.94 609.778 1039.47 626.639 1007.68 626.776C970.853 626.935 937.429 612.804 907.906 600.311L901.293 597.512C897.032 595.692 892.799 593.902 888.593 592.142C855.833 578.489 817.124 565.586 778.083 571.662C774.624 572.185 771.193 572.845 767.9 573.551C734.698 580.924 727.254 595.351 720.144 609.322C716.021 617.446 711.843 625.82 702.38 632.851C694.716 638.586 683.814 641.203 672.276 643.979C657.003 647.643 641.231 651.42 631.99 662.934C623.966 672.81 618.377 684.324 612.954 695.475C610.187 701.391 607.088 707.512 603.823 713.178C603.269 714.134 602.688 715.067 602.135 716H604.099C604.542 715.272 604.985 714.544 605.4 713.724C608.692 708.013 611.681 701.869 614.586 695.93C620.12 684.87 625.654 673.424 633.456 663.662C642.366 652.603 657.805 648.894 672.774 645.299C684.506 642.477 695.601 639.815 703.57 633.921C713.226 626.685 717.57 618.129 721.776 609.869C729.025 595.624 735.887 582.152 768.371 574.962C771.608 574.233 774.984 573.596 778.387 573.073C816.93 567.088 855.307 579.9 887.791 593.553L900.463 598.9L907.104 601.722C936.793 614.283 970.438 628.505 1007.68 628.346C1040.33 628.187 1056.05 611.075 1072.7 592.938C1080.51 584.428 1088.59 575.644 1098.57 568.749C1132.66 545.38 1187.5 530.589 1235.87 517.527C1251.39 513.34 1266.3 509.312 1279.97 505.171L1280 503.51Z" fill="white" fill-opacity="0.1"/>
</g>
<g style="mix-blend-mode:screen" opacity="0.7">
<path d="M72.9911 716H76.0623C48.8318 699.998 25.5929 679.844 7.609 656.631C4.84209 653.309 2.43488 649.964 0 646.619V649.418C1.99217 652.103 4.01202 654.765 6.14254 657.427C23.8221 680.188 46.4896 700.049 72.9911 716Z" fill="white" fill-opacity="0.1"/>
</g>
<g style="mix-blend-mode:screen" opacity="0.7">
<path d="M1280 483.985L1271.45 486.739C1256.01 491.586 1238.77 496.182 1220.54 501.075C1173.36 513.704 1119.91 528.017 1085.71 550.545C1076.25 557.245 1067.68 564.759 1060.17 572.959C1043.98 589.389 1028.65 604.817 998.522 605.477C963.133 606.137 930.678 593.871 899.301 581.993L892.384 579.376C886.85 577.305 881.676 575.349 876.419 573.46C843.741 561.786 804.894 551.068 765.106 560.171C761.702 560.944 758.327 561.786 755.145 562.628C723.519 571.162 714.195 583.677 705.977 594.736C700.803 601.699 695.905 608.253 686.166 613.418C679.166 617.128 669.564 618.561 659.216 620.086C643.555 622.361 625.792 625.069 614.946 636.834C604.874 647.847 598.953 661.637 593.198 674.949C591.261 679.5 589.407 683.733 587.415 687.92C583.824 696.001 578.829 703.612 572.584 710.516C570.703 712.473 568.766 714.293 566.774 716H569.181C570.813 714.544 572.418 713.042 573.968 711.449C580.312 704.432 585.391 696.699 589.047 688.489C591.067 684.302 592.893 680.001 594.858 675.472C600.558 662.252 606.451 648.598 616.357 637.744C626.705 626.366 643.362 623.954 659.465 621.565C669.896 619.995 679.747 618.538 687.134 614.738C697.206 609.391 702.186 602.701 707.471 595.601C715.938 584.223 724.681 572.459 755.698 564.107C758.853 563.243 762.201 562.423 765.576 561.65C804.894 552.684 843.326 563.311 875.727 574.893C880.956 576.759 886.158 578.716 891.637 580.787L898.554 583.404C930.124 595.351 962.774 607.684 998.55 607.024C1029.54 606.432 1045.09 590.663 1061.55 573.96C1068.99 565.84 1077.46 558.395 1086.81 551.751C1120.74 529.405 1174.05 515.138 1221.09 502.531C1239.35 497.661 1256.59 493.042 1272.09 488.172C1274.66 487.353 1277.32 486.511 1280 485.624V483.985Z" fill="white" fill-opacity="0.1"/>
</g>
<g style="mix-blend-mode:screen" opacity="0.7">
<path d="M94.573 716H98.6957C62.7258 702.028 33.0922 679.318 7.94103 646.641C5.17412 643.046 2.40721 639.428 0 635.764V638.654C2.07518 641.59 4.2057 644.525 6.4469 647.415C30.9894 679.318 59.9036 701.823 94.573 716Z" fill="white" fill-opacity="0.1"/>
</g>
<g style="mix-blend-mode:screen" opacity="0.7">
<path d="M19.7557 0C14.9039 6.19674 8.06807 11.173 0 14.3814L0 15.9288C9.04145 12.5049 16.6544 6.96423 21.8863 0L19.7557 0Z" fill="white" fill-opacity="0.1"/>
</g>
<g style="mix-blend-mode:screen" opacity="0.7">
<path d="M97.6719 705.419C107.522 708.673 114.827 711.267 120.693 713.338L128.495 716.091H133.171C129.602 714.908 125.867 713.588 121.384 712.018C115.518 709.924 108.186 707.33 98.336 704.076C62.5322 692.084 33.2029 670.079 8.30073 636.652C5.38625 632.723 2.61934 628.763 0 624.773V627.777C2.15819 631.008 4.37172 634.217 6.75126 637.403C31.7641 671.103 61.5084 693.313 97.6719 705.419Z" fill="white" fill-opacity="0.1"/>
</g>
<g style="mix-blend-mode:screen" opacity="0.7">
<path d="M1280 463.779C1270.74 467.477 1261.22 470.721 1251.5 473.495C1237.39 477.796 1221.87 481.915 1205.46 486.261C1159.75 498.412 1107.95 512.179 1073.98 533.547C1064.87 539.675 1056.53 546.536 1049.07 554.027C1033 569.091 1017.81 583.313 989.281 584.269C955.137 585.407 925.116 575.167 893.352 564.471L884.747 561.559L883.198 561.035C876.612 558.76 870.414 556.78 864.161 554.869C833.476 545.516 792.996 536.369 752.101 548.77C748.836 549.749 745.571 550.75 742.306 551.797C713.614 560.899 702.325 571.207 693.277 579.422C686.581 585.475 680.826 590.8 669.924 594.076C663.865 595.965 655.702 596.352 647.042 596.807C629.942 597.672 610.574 598.627 598.012 610.824C585.45 623.021 579.889 638.768 574.244 654.264C573.193 657.154 572.142 659.999 571.09 662.752C568.179 671.008 563.955 678.912 558.528 686.259C552.693 694.011 544.612 700.453 535.01 705.009C521.396 711.267 504.574 713.087 488.277 714.407C481.332 714.976 475.078 715.181 469.545 715.34L464.149 715.522C461.991 715.522 459.971 715.636 458.09 715.681C454.797 715.681 451.836 715.681 448.931 716.091H485.316L488.498 715.863C504.878 714.521 522.033 712.678 535.923 706.261C545.791 701.611 554.094 695.01 560.078 687.055C565.569 679.563 569.83 671.506 572.75 663.094C573.802 660.34 574.853 657.473 575.905 654.583C581.438 639.223 587.304 623.34 599.313 611.689C611.321 600.038 630.385 599.014 647.125 598.172C655.896 597.717 664.197 597.308 670.505 595.351C681.822 591.846 687.715 586.499 694.55 580.286C703.957 571.776 714.61 562.082 742.915 552.98C746.18 551.933 749.417 550.932 752.682 549.953C793.052 537.711 833.116 546.79 863.525 556.052C869.75 557.941 875.948 560.011 882.506 562.196L884.055 562.719L892.66 565.632C923.096 575.986 954.777 586.681 989.308 585.543C1018.64 584.565 1034.05 570.092 1050.37 554.8C1057.74 547.422 1065.98 540.662 1074.97 534.616C1108.7 513.386 1160.33 499.664 1205.9 487.558C1222.34 483.189 1237.86 479.07 1252.03 474.77C1261.53 472.036 1270.84 468.876 1279.92 465.303L1280 463.779Z" fill="white" fill-opacity="0.1"/>
</g>
<g style="mix-blend-mode:screen" opacity="0.7">
<path d="M1280 440.523C1266.91 450.034 1248.21 455.45 1231.58 460.274C1219.21 463.87 1205.9 467.351 1191.82 471.06C1147.11 482.802 1096.44 496.091 1062.24 516.571C1053.55 522.087 1045.48 528.233 1038.12 534.935C1022.18 548.588 1007.13 561.604 980.15 562.901C946.947 564.494 917.839 555.62 886.961 546.222L873.126 542.08C865.213 539.805 858.627 537.848 851.931 536.118C806.443 524.513 771.691 524.74 739.069 537.21L729.496 540.806C713.529 546.593 698.485 553.968 684.699 562.765C674.351 569.114 667.545 573.323 653.71 574.62C647.788 574.921 641.847 574.815 635.947 574.302C618.045 573.21 595.771 571.867 580.968 584.678C566.165 597.49 560.825 616.422 555.9 633.329L554.682 637.425C552.5 645.889 549.052 654.098 544.417 661.865C539.495 670.087 532.034 677.102 522.78 682.208C509.831 689.171 493.036 691.606 476.822 693.95H476.323L468.742 694.997C462.572 695.839 457.204 696.567 452.749 697.523L451.781 697.727C440.437 700.003 435.18 701.163 424.389 709.219L421.317 711.494C419.657 712.769 417.859 714.134 415.784 715.568L415.285 715.932H418.052C419.657 714.748 421.151 713.656 422.535 712.564L425.578 710.288C436.12 702.483 440.852 701.505 452.224 699.115L453.22 698.911C457.619 698 462.932 697.272 469.074 696.43L476.656 695.361H477.154C493.561 693.085 510.523 690.559 523.776 683.437C533.245 678.182 540.876 670.98 545.911 662.547C550.617 654.672 554.121 646.349 556.343 637.767L557.56 633.671C562.43 616.946 567.964 597.99 582.185 585.68C596.407 573.369 618.155 574.666 635.753 575.735C641.762 576.272 647.817 576.378 653.848 576.054C668.153 574.711 675.126 570.411 685.696 563.925C699.477 555.173 714.512 547.844 730.464 542.103L740.038 538.508C772.189 526.311 806.609 525.992 851.655 537.484C858.323 539.19 864.908 541.102 872.794 543.423C877.387 544.788 881.952 546.169 886.49 547.564C917.535 557.008 946.864 565.951 980.399 564.335C1008.07 563.015 1023.34 549.84 1039.53 535.913C1046.82 529.275 1054.81 523.183 1063.41 517.709C1097.38 497.411 1147.91 484.122 1192.51 472.403C1206.59 468.717 1219.9 465.212 1232.3 461.617C1248.62 456.884 1266.86 451.582 1280.14 442.389L1280 440.523Z" fill="white" fill-opacity="0.1"/>
</g>
<g style="mix-blend-mode:screen" opacity="0.7">
<path d="M93.4939 691.765C119.448 699.571 126.697 699.775 137.598 700.094C141.361 700.208 145.622 700.344 151.433 700.799C156.635 701.232 162.501 702.096 168.505 703.075L177.663 704.395C183.833 705.214 190.004 706.01 196.063 706.67C212.665 708.787 228.27 710.766 241.302 713.383C244.658 714.084 247.965 714.935 251.208 715.932H256.05C251.404 714.315 246.612 712.998 241.717 711.995C228.63 709.355 212.941 707.444 196.34 705.168L177.968 702.893C174.813 702.461 171.77 702.005 168.837 701.573C162.694 700.663 156.884 699.798 151.599 699.298C145.899 698.82 141.583 698.706 137.764 698.592C127.001 698.274 119.89 698.046 94.1856 690.355C60.3463 680.183 31.5704 658.725 8.6881 626.639C5.53382 622.339 2.76691 617.97 0 613.578V616.673C2.21353 620.245 4.53773 623.795 7.05562 627.322C30.1316 659.908 59.2119 681.548 93.4939 691.765Z" fill="white" fill-opacity="0.1"/>
</g>
<g style="mix-blend-mode:screen" opacity="0.7">
<path d="M43.2745 0C37.7141 5.9249 30.2614 10.4627 21.7479 13.1071C14.8271 15.3151 7.4112 16.2773 0 15.9288L0 17.3396C7.62681 17.7028 15.2597 16.7174 22.3843 14.4497C31.65 11.6015 39.6937 6.57678 45.5157 0L43.2745 0Z" fill="white" fill-opacity="0.1"/>
</g>
<g style="mix-blend-mode:screen" opacity="0.7">
<path d="M66.4058 0C60.8831 4.89765 53.9726 8.59532 46.2904 10.7633C30.851 15.3144 15.6054 13.0389 0 8.48778V9.98964C15.5224 14.2677 31.2661 16.5205 47.0375 12.0149C55.4596 9.63699 62.9835 5.49612 68.8684 0L66.4058 0Z" fill="white" fill-opacity="0.1"/>
</g>
<g style="mix-blend-mode:screen" opacity="0.7">
<path d="M1280 406.958C1275.78 414.038 1270.17 420.496 1263.4 426.073C1262.71 426.619 1261.99 427.165 1261.24 427.688C1248.21 437.018 1229.67 442.115 1211.71 447.053C1201.64 449.83 1191.04 452.56 1179.81 455.473C1135.54 466.851 1085.46 479.889 1050.57 499.55C1042.3 504.488 1034.51 509.951 1027.27 515.889C1011.42 528.268 996.447 539.964 971.047 541.579C938.702 543.627 910.175 535.845 880.154 527.585C874.15 525.947 867.952 524.24 861.754 522.647C853.453 520.531 846.702 518.847 839.923 517.436C794.546 507.947 759.489 510.609 726.286 525.719C723.27 527.107 720.199 528.45 716.906 529.86C703.985 535.367 694.19 540.055 686.47 543.832C665.525 553.867 657.694 557.622 637.911 555.21C634.591 554.823 630.551 554.072 626.262 553.253C607.586 549.726 581.992 544.902 564.339 558.532C547.239 571.753 542.508 594.145 538.69 612.121C537.163 620.789 534.472 629.291 530.666 637.471C526.685 646.15 519.867 653.757 510.965 659.453C499.51 666.53 484.181 669.67 469.462 672.696L464.896 673.629C456.991 675.031 449.271 677.066 441.848 679.705C431.444 683.96 428.456 686.941 420.487 694.928L418.689 696.726C416.448 699.002 413.985 701.277 411.024 703.803L407.455 706.807C403.858 709.833 400.178 712.951 396.387 715.909H398.435C401.811 713.201 405.076 710.448 408.285 707.74L411.855 704.736C414.843 702.256 417.388 699.821 419.602 697.568L421.4 695.77C429.424 687.76 432.108 685.053 442.18 680.934C449.49 678.347 457.089 676.35 464.868 674.972L469.462 674.039C484.458 670.967 499.898 667.804 511.685 660.545C520.839 654.697 527.857 646.886 531.966 637.972C535.812 629.686 538.54 621.079 540.101 612.303C543.864 594.531 548.401 572.413 565.224 559.511C582.047 546.608 607.254 551.137 625.543 554.596C629.859 555.415 633.844 556.188 637.33 556.575C657.694 559.033 666.299 554.914 687.134 544.993C694.992 541.238 704.759 536.551 717.57 531.066C720.891 529.633 723.962 528.29 727.005 526.879C759.766 511.861 794.435 509.358 839.37 518.733C846.093 520.144 852.927 521.828 861.09 523.944C867.26 525.537 873.458 527.221 879.462 528.859C909.732 537.165 938.342 544.993 971.047 542.945C997.056 541.284 1012.25 529.428 1028.35 516.844C1035.51 510.958 1043.23 505.548 1051.43 500.665C1086.12 481.118 1136.09 468.17 1180.23 456.747C1191.43 453.857 1202.03 451.104 1212.16 448.328C1229.42 443.572 1248.98 438.202 1262.26 428.69C1263.04 428.144 1263.76 427.575 1264.48 427.029C1270.67 421.999 1275.88 416.221 1279.94 409.894L1280 406.958Z" fill="white" fill-opacity="0.1"/>
</g>
<g style="mix-blend-mode:screen" opacity="0.7">
<path d="M89.2882 678.317C114.522 685.144 121.855 683.164 130.349 680.888C135.505 679.336 140.936 678.49 146.425 678.385C155.362 678.525 164.256 679.44 172.959 681.116C194.421 684.594 215.571 689.262 236.266 695.088C250.267 699.138 263.437 706.147 277.383 713.588L281.92 716H285.185L278.351 712.359C264.323 704.895 251.069 697.818 236.847 693.722C216.042 687.871 194.781 683.18 173.209 679.682C164.376 677.993 155.353 677.07 146.286 676.929C140.619 677.056 135.014 677.932 129.685 679.523C121.384 681.799 114.439 683.596 89.7309 676.929C57.2474 668.145 29.9933 647.87 8.88178 616.672C5.53382 611.848 2.76691 606.979 0 602.086V605.545C2.26887 609.535 4.71297 613.487 7.33231 617.401C28.6928 648.917 56.2513 669.42 89.2882 678.317Z" fill="white" fill-opacity="0.1"/>
</g>
<g style="mix-blend-mode:screen" opacity="0.7">
<path d="M1280 378.082C1277.34 380.348 1274.83 382.725 1272.47 385.204C1269.71 388.208 1266.94 391.257 1264.53 394.17C1257.95 401.884 1251.72 409.166 1241.57 415.765L1239.38 417.13C1226.6 424.776 1209.28 429.281 1192.51 433.605L1191.71 433.81C1184.9 435.585 1177.87 437.36 1170.65 439.18C1125.94 450.558 1075.28 463.278 1038.75 482.552C1030.9 486.898 1023.43 491.68 1016.37 496.865C1000.57 507.947 985.656 518.392 961.778 520.28C930.097 522.784 902.261 515.911 872.794 508.652C865.406 506.832 857.797 504.943 850.133 503.237C843.437 501.735 835.551 500.051 827.666 498.685C782.288 491.199 747.01 495.955 713.254 514.159C710.238 515.798 707.139 517.368 704.04 518.87C659.022 540.692 649.643 545.243 621.531 535.868L617.104 534.343C598.925 528.086 568.489 517.618 547.156 532.409C529.891 544.356 525.021 565.609 522.254 586.817C521.423 595.716 519.495 604.522 516.499 613.1C513.436 622.204 507.262 630.394 498.708 636.697C488.387 643.956 474.138 647.665 460.331 651.261L452.777 653.263C444.476 655.539 436.01 658.133 430.31 661.842C424.925 665.36 420.748 669.972 418.191 675.222C416.669 677.771 414.926 680.661 412.325 684.165C410.312 686.905 408.036 689.507 405.518 691.947C396.969 700.208 385.984 709.583 372.813 715.932H376.217C387.706 709.553 397.989 701.816 406.736 692.971C409.318 690.463 411.659 687.792 413.736 684.984C416.365 681.434 418.108 678.499 419.657 675.882C422.114 670.836 426.118 666.399 431.278 663.003C436.812 659.43 445.113 656.881 453.22 654.674C455.682 653.991 458.228 653.332 460.773 652.672C474.608 649.031 489.162 645.276 499.732 637.812C508.549 631.35 514.917 622.937 518.076 613.578C521.097 604.902 523.043 595.997 523.887 586.999C526.654 566.087 531.523 545.152 548.291 533.524C568.794 519.302 598.593 529.587 616.412 535.8L620.867 537.324C649.781 546.973 659.299 542.353 704.926 520.235C708.052 518.733 711.179 517.117 714.222 515.479C747.425 497.525 782.427 492.724 827.306 500.21C835.136 501.507 842.994 503.191 849.662 504.761C857.299 506.468 864.936 508.357 872.296 510.177C901.929 517.481 929.931 524.376 961.944 521.873C986.348 519.939 1001.48 509.335 1017.5 498.094C1024.49 492.966 1031.88 488.229 1039.64 483.917C1075.97 464.757 1126.52 452.06 1171.12 440.682L1192.18 435.312L1193.01 435.107C1209.89 430.738 1227.35 426.209 1240.35 418.427L1242.62 417.016C1252.94 410.19 1259.22 402.931 1265.92 395.125C1268.43 392.213 1271.01 389.186 1273.83 386.228C1275.77 384.157 1277.81 382.2 1279.94 380.312L1280 378.082Z" fill="white" fill-opacity="0.1"/>
</g>
<g style="mix-blend-mode:screen" opacity="0.7">
<path d="M85.0825 664.823C111.645 671.195 118.534 666.757 125.811 662.047C130.208 658.776 135.67 656.633 141.527 655.88C150.188 654.788 160.425 656.358 168.366 657.86C190.105 662.338 211.219 668.66 231.369 676.724C244.014 681.594 255.856 688.739 268.418 696.317C279.901 703.64 292.056 710.221 304.775 716H308.704C294.886 710.031 281.745 703.055 269.442 695.156C256.825 687.533 244.927 680.342 232.116 675.404C211.859 667.301 190.634 660.948 168.781 656.449C160.702 654.924 150.243 653.332 141.306 654.447C135.127 655.231 129.359 657.476 124.705 660.909C117.787 665.46 111.257 669.602 85.5805 663.412C46.4287 654.014 22.4396 627.39 9.21381 606.706C5.78078 601.332 2.70499 595.81 0 590.162L0 594.054C2.29654 598.605 4.81442 602.974 7.63667 607.388C21.0285 628.323 45.3496 655.357 85.0825 664.823Z" fill="white" fill-opacity="0.1"/>
</g>
<g style="mix-blend-mode:screen" opacity="0.7">
<path d="M89.6202 0C84.1384 3.83863 77.7518 6.70498 70.8606 8.41951C50.6068 13.6533 29.6889 7.7141 9.4905 1.97972L2.40721 0H0V0.887462L8.90945 3.34505C29.3846 9.10218 50.5514 15.1551 71.3863 9.8076C79.178 7.87914 86.3385 4.5263 92.3318 0L89.6202 0Z" fill="white" fill-opacity="0.1"/>
</g>
<g style="mix-blend-mode:screen" opacity="0.7">
<path d="M95.8458 7.48654C102.859 5.99333 109.479 3.45592 115.38 0L112.254 0C107.07 2.75634 101.38 4.80786 95.4031 6.0757C77.0861 10.0352 58.1051 5.8709 39.7605 1.79768L31.5428 0H24.1828C29.2462 0.955729 34.3097 2.07075 39.2901 3.18576C57.8838 7.3045 77.1415 11.6053 95.8458 7.48654Z" fill="white" fill-opacity="0.1"/>
</g>
<g style="mix-blend-mode:screen" opacity="0.7">
<path d="M1280 365.157C1270.43 369.547 1261.55 374.898 1253.58 381.085C1251.03 383.088 1248.62 385.09 1246.24 387.047C1238.36 394.024 1229.49 400.197 1219.82 405.434L1217.63 406.526C1205.27 412.488 1189.55 416.265 1174.36 419.929L1169.02 421.203C1123.78 432.126 1067.5 445.688 1027.02 465.508C1019.65 469.267 1012.52 473.354 1005.69 477.751C989.917 487.558 975.004 496.797 952.592 498.936C921.464 501.917 894.155 495.841 865.213 489.401C856.552 487.49 847.615 485.487 838.567 483.781C829.52 482.074 821.966 480.845 815.464 480.026C770.059 474.405 734.531 481.391 700.305 502.781C697.289 504.647 694.273 506.4 691.257 508.061C646.35 532.477 633.318 531.954 605.317 516.549C572.501 498.617 547.931 495.249 530.168 506.286C510.412 518.574 506.815 543.696 505.791 561.536V562.059C505.598 571.091 504.441 580.091 502.332 588.956C499.261 599.97 494.198 607.98 486.45 614.169C477.015 621.656 463.568 625.888 450.481 629.984C447.16 631.008 443.895 632.055 440.713 633.125C432.911 635.764 424.112 639.155 418.827 644.229C413.542 649.304 412.159 653.991 410.526 659.453C409.499 663.697 407.951 667.844 405.906 671.832C404.284 674.839 402.271 677.692 399.901 680.342C382.581 699.593 352.2 717.047 318.831 708.218C296.364 702.301 277.991 689.74 260.228 677.589C249.855 670.081 238.801 663.235 227.163 657.109C209.51 648.462 186.379 637.949 163.995 633.216C152.235 630.69 143.298 630.326 135.966 631.987C127.665 633.898 123.736 638.199 120.056 642.341C113.969 649.167 108.242 655.653 81.0981 649.895C41.5036 641.499 19.3684 612.986 9.51817 596.739C5.8204 590.56 2.64027 584.182 0 577.647L0 581.97C2.3017 587.221 4.95271 592.364 7.94103 597.376C17.8189 613.851 40.4522 642.887 80.8768 651.306C109.182 657.291 115.546 650.123 121.689 643.205C125.203 639.246 128.827 635.173 136.658 633.398C143.713 631.782 152.318 632.169 163.773 634.604C185.909 639.314 208.929 649.759 226.472 658.338C238.033 664.388 249.013 671.159 259.315 678.59C277.217 690.832 295.727 703.462 318.499 709.492C352.753 718.594 383.853 700.754 401.506 681.093C403.967 678.358 406.046 675.404 407.704 672.287C409.815 668.225 411.401 663.992 412.436 659.658C413.874 654.401 415.202 649.85 420.211 645.071C425.219 640.293 433.824 636.925 441.433 634.353C444.587 633.284 447.88 632.26 451.172 631.213C464.343 627.072 477.956 622.794 487.64 615.08C495.664 608.708 500.866 600.471 504.048 589.161C506.187 580.23 507.354 571.161 507.534 562.059V561.741C508.53 544.196 512.044 519.484 531.219 507.583C548.291 496.956 572.197 500.347 604.321 517.891C634.259 534.275 649.034 532.819 692.198 509.29C695.241 507.628 698.313 505.831 701.329 503.965C735.14 482.893 770.252 475.998 815.187 481.551C821.689 482.37 829.021 483.553 838.125 485.283C847.228 487.012 856.082 488.969 864.715 490.903C893.822 497.366 921.326 503.464 952.758 500.483C975.668 498.208 990.747 488.923 1006.74 479.002C1013.51 474.639 1020.57 470.583 1027.88 466.851C1068.19 447.122 1124.36 433.582 1169.49 422.705L1174.83 421.408C1190.13 417.722 1205.96 413.922 1218.49 407.869L1220.73 406.754C1230.52 401.459 1239.49 395.218 1247.46 388.162C1249.81 386.205 1252.22 384.226 1254.77 382.223C1262.38 376.285 1270.85 371.128 1279.97 366.863L1280 365.157Z" fill="white" fill-opacity="0.1"/>
</g>
<g style="mix-blend-mode:screen" opacity="0.7">
<path d="M120.333 5.16549C126.469 4.09258 132.405 2.35563 137.986 0L134.029 0C129.516 1.65058 124.805 2.90896 119.973 3.75465H119.752C103.731 6.50806 87.0193 3.95945 70.8606 1.4791C67.4849 1.00124 64.1093 0.477864 60.706 0H47.7569C55.3382 0.614397 63.0025 1.77492 70.5285 2.93545C86.9363 5.43855 103.98 8.05543 120.333 5.16549Z" fill="white" fill-opacity="0.1"/>
</g>
<g style="mix-blend-mode:screen" opacity="0.7">
<path d="M0 7.35001C8.75629 3.48992 18.3066 0.997841 28.1671 0L18.3723 0C11.9881 1.28123 5.8183 3.19932 0 5.71162L0 7.35001Z" fill="white" fill-opacity="0.1"/>
</g>
<g style="mix-blend-mode:screen" opacity="0.7">
<path d="M1280 358.171C1275.96 359.536 1272.02 360.901 1268.19 362.267C1256.51 366.351 1245.3 371.294 1234.71 377.035L1231.05 379.06C1220.63 385.185 1209.6 390.575 1198.07 395.171L1195.86 396.013C1183.39 400.18 1170.55 403.557 1157.45 406.116L1151.92 407.368C1113.96 415.787 1058.48 429.236 1015.37 448.555C1008.4 451.695 1001.81 455.223 995.479 458.659C979.569 467.215 964.545 475.316 943.461 477.682C912.804 481.141 885.909 475.771 857.382 470.059C847.587 468.079 837.433 466.054 827.085 464.416C818.065 462.982 810.317 462.004 803.372 461.412C757.193 457.498 722.523 466.418 687.411 491.267C684.478 493.361 681.518 495.318 678.557 497.115C636.279 522.874 618.377 519.575 589.158 497.366C578.588 489.333 541.872 464.348 513.289 480.299C497.103 489.401 489.107 508.197 489.549 536.368V538.303C489.988 547.045 489.591 555.803 488.36 564.494C486.229 576.168 481.774 584.701 474.359 591.323C465.671 599.105 452.832 603.793 440.437 608.344C436.618 609.755 432.662 611.188 428.982 612.69C417.914 617.241 411.578 621.246 407.704 626.343C403.139 632.305 402.862 638.108 402.558 644.252C402.579 649.305 401.75 654.336 400.095 659.202C398.873 662.46 397.124 665.567 394.893 668.441C379.343 688.443 345.089 704.44 311.886 694.678C288.091 687.647 269.386 673.22 251.263 659.271C242.206 651.995 232.644 645.157 222.626 638.791C205.111 628.164 182.09 615.262 159.678 609.959C148.03 607.183 138.678 607.047 131.096 609.527C122.546 612.349 119.254 618.106 116.1 623.681C110.842 632.92 105.89 641.635 77.0584 636.379C49.3893 631.372 24.4872 612.827 9.8502 586.749C5.7007 579.256 2.40324 571.463 0 563.47L0 569.022C2.22598 575.293 5.00012 581.422 8.30073 587.363C22.9654 613.828 48.5593 632.601 76.6711 637.812C106.886 643.296 112.364 633.625 117.677 624.295C120.859 618.72 123.847 613.464 131.76 610.87C138.954 608.594 147.919 608.594 159.208 611.348C181.343 616.581 204.17 629.393 221.602 639.974C231.56 646.299 241.067 653.091 250.073 660.317C268.307 674.357 287.15 688.875 311.305 696.021C345.532 706.147 380.007 690.195 396.332 669.215C398.65 666.229 400.465 662.998 401.728 659.612C403.426 654.627 404.282 649.474 404.273 644.298C404.578 638.085 404.827 632.738 409.143 627.094C412.823 622.247 418.965 618.334 429.701 613.987C433.353 612.508 437.116 611.12 441.101 609.664C453.663 605.113 466.667 600.311 475.604 592.301C483.268 585.475 487.862 576.691 490.047 564.722C491.286 555.947 491.693 547.106 491.265 538.28V536.346C490.822 508.698 498.542 490.243 514.23 481.482C541.706 466.145 577.565 490.585 587.885 498.412C616.578 520.212 635.642 525.013 679.553 498.276C682.541 496.455 685.557 494.476 688.518 492.382C723.215 467.806 757.497 458.977 803.123 462.8C810.013 463.392 817.732 464.37 826.697 465.781C836.99 467.419 847.117 469.445 856.912 471.424C885.577 477.159 912.665 482.575 943.654 479.07C965.153 476.658 981.008 468.102 996.226 459.819C1002.56 456.406 1009.12 452.879 1016.01 449.784C1058.95 430.533 1114.29 417.13 1152.2 408.71L1157.73 407.482C1170.94 404.903 1183.89 401.495 1196.47 397.287L1198.74 396.445C1210.34 391.813 1221.44 386.386 1231.94 380.221L1235.59 378.195C1246.1 372.503 1257.21 367.606 1268.79 363.564C1272.42 362.267 1276.13 360.992 1279.86 359.695L1280 358.171Z" fill="white" fill-opacity="0.1"/>
</g>
<g style="mix-blend-mode:screen" opacity="0.7">
<path d="M706.862 11.0591C714.357 14.7581 723.041 16.4961 731.765 16.0426C733.187 15.9463 734.6 15.7791 735.998 15.542C741.105 14.7467 745.812 12.7279 749.528 9.73932C752.528 7.02445 755.018 3.95659 756.916 0.637142L757.358 -0.0227661H755.366C753.552 3.16584 751.164 6.11156 748.283 8.71532C743.734 12.2493 737.794 14.3243 731.543 14.5635C723.228 14.9846 714.952 13.3267 707.803 9.80758C702.467 7.1434 697.645 3.83761 693.498 -1.0673e-05H691.063C695.587 4.34868 700.92 8.08122 706.862 11.0591Z" fill="white" fill-opacity="0.1"/>
</g>
<g style="mix-blend-mode:screen" opacity="0.7">
<path d="M13.0875 434.288V434.06C13.9451 427.449 13.9451 420.782 13.0875 414.172C10.0827 395.007 5.71273 376.004 0 357.26L0 363.063C4.98044 379.629 8.30073 396.9 11.3997 414.49C12.2434 421.003 12.2434 427.57 11.3997 434.083V434.288C10.3759 445.665 7.80269 457.68 5.06344 470.4C3.26495 478.501 1.43879 486.966 0 495.636V508.197C1.49413 495.227 4.17803 482.575 6.75126 470.537C9.4905 457.794 12.0637 445.734 13.0875 434.288Z" fill="white" fill-opacity="0.1"/>
</g>
<g style="mix-blend-mode:screen" opacity="0.7">
<path d="M0 149.025C2.59053 147.173 4.96219 145.124 7.08329 142.904C23.9338 125.155 18.566 103.446 13.4195 82.443C8.63276 62.9871 3.67999 42.894 16.6015 26.1232C25.6769 14.0629 42.0847 5.39304 61.7298 2.27554C75.0109 0.182044 88.9008 1.25155 103.565 2.38932C117.206 3.43607 131.235 4.52833 144.792 2.82168C149.804 2.22133 154.747 1.27748 159.568 0L153.148 0C150.382 0.568886 147.615 1.04675 144.543 1.41084C131.235 3.09474 117.262 2.00248 103.731 0.955729C99.0554 0.614397 94.3239 0.25031 89.5649 0H69.5878C66.8025 0.164691 64.031 0.461001 61.287 0.887462C41.5036 4.02771 24.4595 12.9706 14.9967 25.3496C1.79849 42.5982 6.83427 63.0098 11.6764 82.716C16.7675 103.401 22.1353 124.791 5.69983 142.017C3.96032 143.818 2.05475 145.507 0 147.068L0 149.025Z" fill="white" fill-opacity="0.1"/>
</g>
<g style="mix-blend-mode:screen" opacity="0.7">
<path d="M1280 352.368C1270.32 356.054 1260.02 359.195 1249.76 362.335C1238 365.816 1226.57 369.161 1215.89 372.962C1202.98 377.49 1189.79 381.47 1176.38 384.885L1174.14 385.454C1164.76 387.73 1154.35 389.801 1144.31 391.712L1131.92 394.124C1087.65 402.867 1044.63 415.413 1003.56 431.557C997.443 434.037 991.522 436.722 985.795 439.339C969.553 446.758 954.224 453.743 934.192 456.383C903.894 460.388 877.304 455.587 849.137 450.489C838.235 448.532 827.002 446.507 815.436 444.983C806.416 443.822 798.447 443.094 791.115 442.707C744.714 440.432 709.823 451.582 674.407 479.776C671.64 482.051 668.596 484.327 665.718 486.17C623.772 514.546 600.696 505.193 572.778 478.046C553.41 459.114 521.59 441.501 496.245 454.199C474.11 465.28 471.481 491.244 473.142 511.087L473.474 514.705C474.444 523.161 474.712 531.661 474.276 540.146C473.169 552.411 469.323 561.445 462.185 568.59C454.078 576.646 441.737 581.811 429.812 586.794C425.551 588.569 421.124 590.413 417.056 592.347C409.724 595.828 400.732 600.789 396.415 608.48C392.486 615.466 393.261 622.27 394.119 629.461C395.085 635.164 395.029 640.952 393.953 646.641C393.138 650.134 391.652 653.499 389.553 656.608C375.719 677.338 338.255 692.175 304.747 681.184C279.458 672.901 260.477 656.312 241.883 640.224C234.136 633.398 226.112 626.571 217.894 620.427C193.684 602.564 172.572 591.186 155.141 586.658C143.381 583.563 133.835 583.7 126.033 587.022C117.4 590.686 114.661 597.876 112.005 604.817C107.605 616.445 103.427 627.413 72.7974 622.794C41.5036 618.151 19.9217 595.965 10.1546 576.782C4.88289 566.299 1.46335 555.249 0 543.969L0 553.617C1.8242 561.752 4.68051 569.706 8.52208 577.351C18.483 596.875 40.4799 619.471 72.493 624.295C104.506 629.12 109.238 617.036 113.692 605.317C116.459 598.354 118.839 591.778 126.835 588.365C134.223 585.247 143.298 585.133 154.504 588.092C171.687 592.643 192.577 603.838 216.594 621.588C224.894 627.618 232.42 634.24 240.5 641.294C259.093 657.45 278.323 674.153 303.973 682.549C338.365 693.927 376.742 678.613 390.992 657.336C393.189 654.087 394.767 650.58 395.668 646.937C396.772 641.112 396.828 635.185 395.834 629.347C395.032 622.361 394.257 615.694 397.992 609.118C401.202 603.406 407.344 598.627 417.914 593.621C421.926 591.71 426.215 589.889 430.586 588.114C442.678 583.063 455.184 577.829 463.513 569.546C470.9 562.15 474.885 552.866 475.991 540.26C476.455 531.706 476.187 523.137 475.189 514.614L474.885 511.019C473.225 491.586 475.742 466.168 497.02 455.45C521.424 443.208 552.358 460.502 571.284 479.002C599.949 506.877 623.634 516.435 666.687 487.308C669.62 485.328 672.58 483.166 675.486 480.845C710.515 452.947 745.018 441.979 790.866 444.186C798.17 444.527 806.056 445.256 815.021 446.462C826.531 447.964 837.765 449.989 848.611 451.969C876.944 457.066 903.728 461.913 934.385 457.862C954.722 455.2 970.909 447.804 986.569 440.659C992.297 438.042 998.19 435.357 1004.25 432.899C1045.2 416.797 1088.11 404.289 1132.25 395.581L1144.64 393.168C1154.71 391.257 1165.12 389.255 1174.58 386.888L1176.82 386.319C1190.27 382.878 1203.51 378.884 1216.47 374.35C1227.12 370.641 1238.61 367.227 1250.26 363.746C1260.3 360.742 1270.4 357.602 1279.92 354.006L1280 352.368Z" fill="white" fill-opacity="0.1"/>
</g>
<g style="mix-blend-mode:screen" opacity="0.7">
<path d="M1280 343.129C1265.67 352.732 1247.02 358.74 1231.33 362.38C1219.32 365.157 1207.34 367.205 1197.08 368.911C1187.45 370.527 1178.23 371.665 1168.47 372.871C1163.98 373.417 1159.39 373.986 1154.63 374.623L1152.36 374.919C1139.25 376.648 1125.36 378.537 1111.94 380.903C1066.01 389.004 1021.35 404 991.771 414.559C987.344 416.152 983 417.767 978.656 419.406C961.224 425.914 944.761 432.08 924.95 435.107C894.957 439.658 868.561 435.38 840.642 430.829C828.772 428.895 816.515 426.892 803.815 425.595C795.555 424.707 787.241 424.198 778.913 424.07C732.097 423.456 696.957 436.7 661.457 468.33C658.524 470.878 655.758 473.313 652.991 475.27C636.168 487.854 621.005 493.338 606.7 491.995C590.292 490.448 574.355 479.89 556.508 458.772C538.081 436.904 506.704 415.742 479.339 428.144C452.971 439.954 454.852 472.426 456.872 485.851C457.149 487.604 457.425 489.401 457.702 491.199C459.202 499.352 460.062 507.576 460.275 515.82C460.275 528.654 457.01 538.212 450.093 545.903C442.484 554.3 430.503 559.92 418.91 565.336C414.317 567.498 409.586 569.705 405.242 572.049C397.882 576.054 388.972 581.788 385.264 590.686C381.889 598.764 383.77 606.615 385.763 614.943C387.645 621.213 388.381 627.678 387.948 634.126C387.49 637.832 386.274 641.448 384.351 644.821C371.098 667.918 329.013 679.068 297.636 667.759C270.631 658.019 251.18 638.905 232.337 620.404C226.14 614.306 219.72 607.98 213.19 602.2C200.186 590.686 174.786 570.342 150.658 563.516C138.899 560.171 128.91 560.558 121.025 564.676C112.337 569.227 110.151 577.761 108.048 586.021C104.478 600.016 101.103 613.214 68.5917 609.391C43.6895 606.478 20.9732 589.798 10.4866 566.861C-6.11487 530.27 7.71968 493.27 19.8111 460.616C23.4357 450.876 26.8944 441.66 29.5506 432.604C31.6297 426.076 33.1005 419.427 33.95 412.715C38.128 370.094 31.1831 337.236 12.5064 312.341C8.72765 307.304 4.5498 302.477 0 297.891L0 300.167C3.99267 304.255 7.68831 308.532 11.0676 312.978C29.4953 337.622 36.4402 370.163 32.2622 412.488C31.4507 419.126 29.9981 425.7 27.9181 432.149C25.1512 441.251 21.8309 450.353 18.2063 460.07C5.83818 493.019 -8.05171 530.202 8.82644 567.316C19.5067 590.731 42.8318 607.798 68.2873 610.779C102.431 614.807 106.139 600.289 109.791 586.271C111.921 577.943 113.941 570.069 121.993 565.791C129.519 561.855 138.594 561.536 150.105 564.79C174.758 571.799 201.542 593.917 211.918 603.11C218.42 608.89 224.839 615.171 231.009 621.315C249.99 639.929 269.58 659.18 296.972 669.101C329.096 680.706 372.343 669.215 385.956 645.481C387.988 641.956 389.262 638.168 389.719 634.285C390.191 627.7 389.445 621.094 387.506 614.693C385.569 606.569 383.743 598.9 386.952 591.186C389.719 584.565 395.668 579.035 406.321 573.278C410.609 571.002 415.341 568.727 419.906 566.611C431.638 561.126 443.785 555.438 451.615 546.791C458.781 538.826 462.129 528.996 462.157 515.843C461.936 507.538 461.067 499.253 459.556 491.04L458.726 485.692C456.761 472.562 454.852 440.841 480.28 429.418C506.704 417.494 537.14 438.247 555.18 459.614C573.221 480.982 589.684 491.859 606.617 493.452C621.448 494.84 637.053 489.265 654.291 476.362C657.058 474.292 659.991 471.811 662.924 469.331C698.064 438.042 732.788 424.958 779.134 425.527C787.416 425.666 795.683 426.175 803.898 427.051C816.543 428.348 828.8 430.328 840.587 432.262C868.699 436.813 895.234 441.183 925.586 436.54C945.591 433.491 962.912 427.006 979.68 420.748C984.024 419.11 988.368 417.494 992.795 415.924C1022.29 405.365 1066.84 390.415 1112.6 382.337C1125.94 380.061 1139.86 378.104 1152.94 376.375L1155.21 376.079C1159.92 375.442 1164.48 374.873 1169.05 374.327C1178.84 373.121 1188.08 372.051 1197.74 370.368C1208.06 368.661 1220.07 366.59 1232.13 363.814C1247.63 360.219 1265.94 354.37 1280.33 345.041L1280 343.129Z" fill="white" fill-opacity="0.1"/>
</g>
<g style="mix-blend-mode:screen" opacity="0.7">
<path d="M1265.94 226.553C1269.2 219.949 1273.97 213.923 1280 208.804V206.528C1273.26 212.085 1267.92 218.681 1264.28 225.939C1256.87 242.186 1262.49 259.64 1267.91 276.524C1273.03 292.453 1278.34 308.996 1272.61 324.311C1264.51 346.156 1237.17 358.102 1213.9 362.085L1212.9 362.267C1194.5 365.248 1175.36 364.838 1156.82 364.428C1148.99 364.269 1140.94 364.087 1132.99 364.178C1084.05 364.679 1041.49 378.104 1000.18 391.075C973.233 399.563 945.37 408.346 915.681 413.626L914.823 413.762C885.383 418.814 859.485 414.968 831.816 410.895C819.061 408.984 805.862 407.027 792.139 406.003C731.405 401.452 689.763 416.061 648.259 456.656C630.8 473.791 613.59 481.892 597.099 480.777C577.731 479.434 558.943 465.872 539.879 439.271C522.254 414.65 491.292 390.074 462.046 401.861C432.8 413.648 437.974 449.648 440.243 460.388L441.654 466.76C446.081 486.557 450.647 507.037 437.67 522.988C430.559 531.726 418.938 537.734 407.704 543.468C392.403 551.387 377.96 558.874 373.754 572.595C370.987 581.834 374.086 591.232 377.102 600.289C379.84 607.087 381.35 614.179 381.585 621.337C381.252 633.307 373.284 643.797 359.256 650.919C339.306 660.977 310.918 662.297 290.083 654.105C261.113 642.727 241.302 620.564 222.1 599.151C217.534 594.031 212.775 588.752 208.016 583.7C202.482 577.965 158.212 532.546 125.867 538.189C122.128 538.832 118.612 540.154 115.574 542.057C106.83 547.428 105.198 557.258 103.621 566.77C100.854 583.085 98.336 598.491 63.9156 595.692C40.8119 593.917 19.3684 578.261 10.7909 556.848C-3.70766 520.44 15.716 485.624 34.4757 452.014C38.377 445.028 42.4167 437.792 45.986 430.829C59.8206 403.682 78.3312 352.323 47.3142 313.206C38.0173 301.464 25.1789 292.043 12.5341 282.896C8.30073 279.892 4.1227 276.774 0 273.589V275.546C3.763 278.436 7.609 281.235 11.372 283.988C23.8231 293.09 36.6892 302.42 45.8477 313.98C76.422 352.664 58.0498 403.386 44.3536 430.26C40.8119 437.223 36.9659 444.118 32.8709 451.422C13.9729 485.283 -5.53382 520.28 9.1308 557.304C17.8466 579.263 39.9542 595.328 64.1093 597.285C100.079 600.198 103.012 583.381 105.613 567.111C107.218 557.463 108.712 548.361 116.874 543.354C142.247 527.767 185.383 562.059 206.965 584.815C211.724 589.844 216.483 595.123 221.048 600.243C240.417 621.792 260.339 644.07 289.668 655.653C310.918 664.027 339.998 662.684 360.418 652.399C374.999 645.049 383.245 634.194 383.604 621.633C383.361 614.338 381.832 607.11 379.067 600.175C375.94 590.891 373.007 582.107 375.719 573.232C379.758 560.057 393.897 552.752 408.922 544.97C420.321 539.076 432.081 532.978 439.358 524.012C452.749 507.56 448.101 486.784 443.619 466.714C443.121 464.575 442.65 462.459 442.208 460.343C439.966 449.852 434.875 414.832 463.042 403.454C491.209 392.076 521.341 416.197 538.607 440.272C557.975 467.306 577.122 481.118 597.182 482.484C614.282 483.667 631.99 475.384 649.753 457.862C691.257 417.153 731.156 403.09 792.056 407.8C805.696 408.847 818.867 410.781 831.595 412.67C859.264 416.789 885.439 420.657 915.211 415.56L916.068 415.401C945.896 410.121 973.814 401.315 1000.82 392.804C1041.85 379.857 1084.27 366.476 1132.91 365.976C1140.8 365.976 1148.85 366.09 1156.65 366.249C1175.27 366.658 1194.56 367.068 1213.12 363.973C1237 360.059 1265.7 347.794 1274.19 325.039C1280.06 309.224 1274.69 292.521 1269.51 276.365C1264.26 259.571 1258.72 242.345 1265.94 226.553Z" fill="white" fill-opacity="0.1"/>
</g>
</svg>
